<svg width="121" height="121" viewBox="0 0 121 121" fill="none" xmlns="http://www.w3.org/2000/svg">
<g id="mdi:music" clip-path="url(#clip0_447_1227)">
<path id="Vector" d="M72.1839 15.0263L95.1006 54.7191C96.8024 57.6667 97.2636 61.1697 96.3827 64.4573C95.5017 67.7449 93.3509 70.548 90.4033 72.2498C87.4557 73.9516 83.9527 74.4128 80.6651 73.5318C77.3775 72.6509 74.5744 70.5001 72.8726 67.5525C71.1708 64.6048 70.7096 61.1019 71.5906 57.8143C72.4715 54.5266 74.6223 51.7236 77.5699 50.0218C79.2847 49.0318 81.1241 48.4778 82.9564 48.3514L72.1947 29.7117L44.3455 54.8087L60.6621 83.07C62.364 86.0176 62.8251 89.5205 61.9442 92.8082C61.0633 96.0958 58.9124 98.8988 55.9648 100.601C53.0172 102.302 49.5143 102.764 46.2266 101.883C42.939 101.002 40.136 98.8509 38.4342 95.9033C36.7324 92.9557 36.2712 89.4528 37.1521 86.1651C38.033 82.8775 40.1839 80.0745 43.1315 78.3726C44.8462 77.3826 46.6857 76.8287 48.518 76.7023L33.228 50.2192L72.1839 15.0263Z" fill="white" fill-opacity="0.21"/>
</g>
<defs>
<clipPath id="clip0_447_1227">
<rect width="88" height="88" fill="white" transform="translate(0 44) rotate(-30)"/>
</clipPath>
</defs>
</svg>
