<?xml version="1.0" encoding="utf-8"?>
<svg width="99" height="29" viewBox="0 0 99 29" fill="none" xmlns="http://www.w3.org/2000/svg">
                            <path
                                d="M21.3059 26.9488C22.6567 28.2536 24.7986 28.2048 26.0899 26.8398C27.3812 25.4749 27.3329 23.3106 25.982 22.0059L6.12212 2.82416C4.77124 1.51943 2.62935 1.5682 1.33806 2.93313C0.0467738 4.29814 0.0950767 6.4624 1.44595 7.76713L21.3059 26.9488Z"
                                fill="#FBAF37" />
                            <path
                                d="M20.7599 2.49058C19.4686 3.85551 19.517 6.01976 20.8678 7.3245C22.2187 8.62923 24.3606 8.58046 25.6519 7.21553C26.9432 5.85052 26.8948 3.68634 25.544 2.38153C24.1931 1.07679 22.0512 1.12564 20.7599 2.49058Z"
                                fill="url(#paint0_linear)" />
                            <path fill-rule="evenodd" clip-rule="evenodd"
                                d="M22.1123 18.2683C20.3829 17.5211 16.2285 16.7523 13.6758 19.5794L13.6755 19.5791C13.6641 19.5916 13.6526 19.604 13.6409 19.6163L6.4871 27.1783C5.19582 28.5432 3.05392 28.5921 1.70304 27.2874C0.35216 25.9825 0.303849 23.8184 1.59513 22.4534L8.74899 14.8913C8.76062 14.879 8.77234 14.8668 8.78413 14.8547L8.78389 14.8545C9.99967 13.5157 11.8978 9.87957 9.6999 6.27972L22.1123 18.2683Z"
                                fill="url(#paint1_linear)" />
                            <path
                                d="M39.4909 27.4542C38.0837 27.4542 36.8315 27.2253 35.7343 26.7676C34.6372 26.2858 33.7189 25.6234 32.9795 24.7802C32.2401 23.9129 31.6796 22.865 31.298 21.6364C30.9164 20.4078 30.7255 19.0347 30.7255 17.517C30.7255 15.9993 30.9164 14.6382 31.298 13.4337C31.6796 12.2051 32.2401 11.1572 32.9795 10.2899C33.7189 9.42268 34.6372 8.76018 35.7343 8.30249C36.8315 7.8448 38.0837 7.61592 39.4909 7.61592C41.399 7.61592 42.9851 8.04954 44.2493 8.91679C45.5372 9.78403 46.4555 11.0006 47.004 12.5665L42.7108 14.4455C42.5439 13.7228 42.198 13.1085 41.6733 12.6026C41.1486 12.0967 40.4211 11.8437 39.4909 11.8437C38.4176 11.8437 37.6066 12.2051 37.058 12.9278C36.5095 13.6264 36.2352 14.578 36.2352 15.7825V19.3237C36.2352 20.5283 36.5095 21.4798 37.058 22.1784C37.6066 22.8771 38.4176 23.2264 39.4909 23.2264C40.445 23.2264 41.1963 22.9734 41.7448 22.4675C42.3172 21.9376 42.7347 21.251 42.997 20.4078L47.1113 22.2146C46.4913 24.0213 45.5253 25.3463 44.2134 26.1895C42.9254 27.0326 41.3513 27.4542 39.4909 27.4542ZM57.8344 27.4542C56.451 27.4542 55.2108 27.2253 54.1136 26.7676C53.0403 26.3099 52.122 25.6474 51.3587 24.7802C50.6194 23.9129 50.047 22.865 49.6415 21.6364C49.236 20.4078 49.0333 19.0347 49.0333 17.517C49.0333 15.9993 49.236 14.6262 49.6415 13.3976C50.047 12.169 50.6194 11.1331 51.3587 10.2899C52.122 9.42268 53.0403 8.76018 54.1136 8.30249C55.2108 7.8448 56.451 7.61592 57.8344 7.61592C59.2178 7.61592 60.4461 7.8448 61.5194 8.30249C62.6166 8.76018 63.5348 9.42268 64.2742 10.2899C65.0375 11.1331 65.6219 12.169 66.0273 13.3976C66.4328 14.6262 66.6355 15.9993 66.6355 17.517C66.6355 19.0347 66.4328 20.4078 66.0273 21.6364C65.6219 22.865 65.0375 23.9129 64.2742 24.7802C63.5348 25.6474 62.6166 26.3099 61.5194 26.7676C60.4461 27.2253 59.2178 27.4542 57.8344 27.4542ZM57.8344 23.2264C58.8838 23.2264 59.6948 22.9011 60.2672 22.2507C60.8396 21.6003 61.1258 20.6728 61.1258 19.4683V15.6018C61.1258 14.3973 60.8396 13.4698 60.2672 12.8194C59.6948 12.169 58.8838 11.8437 57.8344 11.8437C56.785 11.8437 55.974 12.169 55.4015 12.8194C54.8291 13.4698 54.5429 14.3973 54.5429 15.6018V19.4683C54.5429 20.6728 54.8291 21.6003 55.4015 22.2507C55.974 22.9011 56.785 23.2264 57.8344 23.2264ZM78.0288 27.4542C76.6454 27.4542 75.4051 27.2253 74.308 26.7676C73.2347 26.3099 72.3164 25.6474 71.5532 24.7802C70.8137 23.9129 70.2413 22.865 69.8359 21.6364C69.4304 20.4078 69.2277 19.0347 69.2277 17.517C69.2277 15.9993 69.4304 14.6262 69.8359 13.3976C70.2413 12.169 70.8137 11.1331 71.5532 10.2899C72.3164 9.42268 73.2347 8.76018 74.308 8.30249C75.4051 7.8448 76.6454 7.61592 78.0288 7.61592C79.412 7.61592 80.6407 7.8448 81.714 8.30249C82.8112 8.76018 83.7291 9.42268 84.4685 10.2899C85.2319 11.1331 85.816 12.169 86.2215 13.3976C86.6271 14.6262 86.8295 15.9993 86.8295 17.517C86.8295 19.0347 86.6271 20.4078 86.2215 21.6364C85.816 22.865 85.2319 23.9129 84.4685 24.7802C83.7291 25.6474 82.8112 26.3099 81.714 26.7676C80.6407 27.2253 79.412 27.4542 78.0288 27.4542ZM78.0288 23.2264C79.0781 23.2264 79.8893 22.9011 80.4614 22.2507C81.0343 21.6003 81.3203 20.6728 81.3203 19.4683V15.6018C81.3203 14.3973 81.0343 13.4698 80.4614 12.8194C79.8893 12.169 79.0781 11.8437 78.0288 11.8437C76.9793 11.8437 76.1684 12.169 75.596 12.8194C75.0235 13.4698 74.7373 14.3973 74.7373 15.6018V19.4683C74.7373 20.6728 75.0235 21.6003 75.596 22.2507C76.1684 22.9011 76.9793 23.2264 78.0288 23.2264ZM95.8622 27.0206C94.0494 27.0206 92.7132 26.5749 91.855 25.6836C91.0199 24.7922 90.6024 23.5034 90.6024 21.8171V0.280457H95.898V22.865H98.259V27.0206H95.8622Z"
                                fill="url(#paint2_linear)" />
                            <defs>
                                <linearGradient id="paint0_linear" x1="20.8313" y1="7.28925" x2="25.8404" y2="2.10313"
                                    gradientUnits="userSpaceOnUse">
                                    <stop stop-color="#F0988F" />
                                    <stop offset="1" stop-color="#CA2C1B" />
                                </linearGradient>
                                <linearGradient id="paint1_linear" x1="11.3848" y1="6.27972" x2="11.3848" y2="28.2348"
                                    gradientUnits="userSpaceOnUse">
                                    <stop stop-color="#18A9BC" />
                                    <stop offset="1" stop-color="#0E616B" />
                                </linearGradient>
                                <linearGradient id="paint2_linear" x1="67.2187" y1="-0.341247" x2="65.9005" y2="35.6691"
                                    gradientUnits="userSpaceOnUse">
                                    <stop stop-color="#18A9BC" />
                                    <stop offset="1" stop-color="#0E616B" />
                                </linearGradient>
                            </defs>
                        </svg>